<?xml version="1.0" encoding="UTF-8" standalone="no"?>
<svg
   version="1.1"
   width="1000"
   height="363.21558"
   viewBox="0 0 1000 363.21557"
   id="svg3"
   sodipodi:docname="404_1000.svg"
   inkscape:version="1.4 (e7c3feb1, 2024-10-09)"
   xmlns:inkscape="http://www.inkscape.org/namespaces/inkscape"
   xmlns:sodipodi="http://sodipodi.sourceforge.net/DTD/sodipodi-0.dtd"
   xmlns="http://www.w3.org/2000/svg"
   xmlns:svg="http://www.w3.org/2000/svg">
  <defs
     id="defs3">
    <rect
       x="-611.39679"
       y="200.28516"
       width="1206.9816"
       height="1349.2896"
       id="rect3" />
    <rect
       x="-611.39679"
       y="200.28516"
       width="1206.9816"
       height="1349.2896"
       id="rect3-2" />
  </defs>
  <sodipodi:namedview
     id="namedview3"
     pagecolor="#505050"
     bordercolor="#eeeeee"
     borderopacity="1"
     inkscape:showpageshadow="0"
     inkscape:pageopacity="0"
     inkscape:pagecheckerboard="0"
     inkscape:deskcolor="#505050"
     inkscape:zoom="0.33380515"
     inkscape:cx="1292.6703"
     inkscape:cy="753.43355"
     inkscape:window-width="1528"
     inkscape:window-height="766"
     inkscape:window-x="0"
     inkscape:window-y="25"
     inkscape:window-maximized="0"
     inkscape:current-layer="g5"
     showgrid="true">
    <inkscape:grid
       id="grid4"
       units="px"
       originx="-286.28891"
       originy="-55.668858"
       spacingx="1"
       spacingy="0.99999998"
       empcolor="#0099e5"
       empopacity="0.30196078"
       color="#0099e5"
       opacity="0.14901961"
       empspacing="5"
       enabled="true"
       visible="true" />
  </sodipodi:namedview>
  <g
     id="g5"
     transform="translate(-286.28891,-55.668859)">
    <g
       id="g1"
       style="fill:#ffe680"
       transform="matrix(0.34702468,0,0,0.34703677,230.6029,-56.178129)">
      <path
         d="m 8.0191489,950.75207 c -2.4650136,0.0651 -4.9618999,0.52151 -7.29023599,1.47534 -11.00961091,4.51019 -15.38306291,16.99564 -10.51380971,26.98444 -0.043912,0.0998 -0.1967899,0.30216 -0.2479672,0.38074 -2.94935,4.7859 -4.76097,10.80734 -4.76097,17.37097 0,15.53774 9.8567338,28.12654 22.0194874,28.12654 7.2932626,0 13.6979456,-4.59 17.7048576,-11.5647 1.668405,4.2196 5.933056,7.234 10.910557,7.234 1.661726,0 3.231637,-0.3023 4.661784,-0.9043 -0.01784,0.253 -0.04959,0.5042 -0.04959,0.7614 0,6.1705 5.224467,11.1841 11.654459,11.1841 4.100451,0 7.695731,-2.0657 9.769907,-5.1399 1.903251,3.6839 5.839494,6.2344 10.414622,6.2344 5.380182,0 9.87304,-3.5225 11.208119,-8.2809 0.120516,-0.036 0.227184,-0.105 0.347154,-0.1431 1.992008,1.5297 4.490894,2.4747 7.240641,2.4747 6.429991,0 11.654456,-5.0136 11.654456,-11.1842 0,-1.001 -0.18893,-1.932 -0.44634,-2.8553 0.22391,-0.2543 0.42956,-0.5019 0.64472,-0.7615 0.0666,10e-4 0.13153,0 0.19837,0 6.42999,0 11.65446,-5.0135 11.65446,-11.184 0,-3.79393 -1.94679,-7.11823 -4.95934,-9.13763 -0.0102,-0.14605 -0.0868,-0.28276 -0.0992,-0.42831 1.41395,-1.84958 2.2813,-4.09796 2.2813,-6.56765 0,-5.66804 -4.41705,-10.36394 -10.11706,-11.08885 0.37019,-1.09048 0.54553,-2.26515 0.54553,-3.47418 0,-6.17046 -5.174878,-11.13644 -11.604869,-11.13644 -2.296003,0 -4.445122,0.65985 -6.248773,1.76088 -1.678385,-4.19126 -5.951985,-7.18632 -10.910557,-7.18632 -3.888318,0 -7.308282,1.85338 -9.422754,4.66397 -2.092246,-2.97186 -5.602382,-4.90194 -9.621127,-4.90194 -6.094979,0 -11.100284,4.50852 -11.604865,10.2322 -1.509117,-0.68582 -3.178625,-1.0946 -4.959344,-1.0946 -6.42999,0 -11.654459,5.01355 -11.654459,11.18402 0,2.02746 0.596957,3.92611 1.586991,5.56822 -1.131859,0.10114 -2.208384,0.37116 -3.223574,0.76146 -0.373399,-0.63353 -0.728375,-1.21723 -1.140649,-1.80848 -1.505457,1.41824 -3.330213,2.59204 -5.455279,3.37901 -7.207493,2.66916 -16.1291901,-0.17422 -18.89510045,-7.28152 -2.09573775,-5.38521 0.4937765,-12.08756 6.69511475,-13.84916 2.1503719,-0.61084 4.5376587,-0.4077 6.5463337,0.47591 2.008675,0.88363 3.679143,2.49152 4.165849,4.75917 0.28735,1.3388 0.02831,2.87483 -0.743901,4.09288 -0.772219,1.21806 -2.170652,2.14664 -3.917883,2.04644 -0.917809,-0.0526 -1.738683,-0.54464 -2.3308916,-1.23738 -0.2961035,-0.34637 -0.5384814,-0.77973 -0.4959334,-1.33257 0.042548,-0.55283 0.4861092,-1.0942 1.041461,-1.38015 l 0.743903,1.38015 c -0.238954,0.12312 -0.150685,0.12008 -0.148781,0.0952 0.0019,-0.0249 0.01368,0.0799 0.148781,0.23796 0.270379,0.31628 0.998644,0.65866 1.140649,0.66628 1.124785,0.0645 1.890174,-0.43336 2.430078,-1.28497 0.539973,-0.85161 0.738791,-2.05023 0.545528,-2.95068 -0.372996,-1.73786 -1.590373,-2.99369 -3.223573,-3.71214 -1.633201,-0.71846 -3.6571528,-0.82983 -5.4056863,-0.33315 -5.2422557,1.48914 -7.44168797,7.16061 -5.65365183,11.75514 2.41054353,6.19413 10.39249713,8.80225 16.81217613,6.42485 8.13042,-3.01091 11.395845,-12.11864 8.083731,-19.41737 C 22.70154,954.18063 15.414185,950.55643 8.0191475,950.75164 Z M 40.502852,1022.901 c -0.758558,0.3193 -1.550443,0.5161 -2.380485,0.6663 -0.135779,1.6037 -0.198375,3.2918 -0.198375,4.997 0,3.9836 0.406341,7.7361 1.091056,11.0414 h 16.911364 c 0.369037,-1.7801 0.655933,-3.7072 0.843089,-5.711 -1.424261,0.6041 -3.005833,0.9517 -4.661784,0.9517 -6.429991,0 -11.654459,-5.0136 -11.654459,-11.1841 0,-0.2573 0.03176,-0.5085 0.04959,-0.7613 z m 43.344667,4.6164 c -0.119984,0.039 -0.226639,0.1064 -0.347154,0.1431 -0.667539,2.3791 -2.10404,4.426 -4.066662,5.9015 0.185871,2.1249 0.454396,4.1678 0.843089,6.0441 h 16.911362 c 0.68563,-3.3069 1.091056,-7.0549 1.091056,-11.0412 0,-0.334 0.0053,-0.6689 0,-0.9996 -1.986075,1.5075 -4.466031,2.4273 -7.191049,2.4273 -2.749747,0 -5.248633,-0.9449 -7.240642,-2.4748 z m -43.939789,15.6101 c 1.743563,5.7047 4.503399,9.4231 7.587797,9.4231 3.084399,0 5.79464,-3.7184 7.538203,-9.4231 z m 41.261744,0 c 1.743561,5.7047 4.503398,9.4231 7.587795,9.4231 3.084399,0 5.79464,-3.7184 7.538203,-9.4231 z"
         fill-opacity="1"
         stroke="none"
         id="path1"
         style="display:inline;fill:#ffe680;stroke-width:1.4105"
         transform="matrix(10.499794,0,0,10.280486,1097.0843,-9451.8204)" />
      <path
         style="font-size:192px;font-family:System-ui;-inkscape-font-specification:System-ui;white-space:pre;fill:#ffe680;stroke-width:1.00157"
         d="m -498.61523,336.17133 h -20.71875 v 39.28125 h -18 v -39.28125 h -66.84375 v -21.5625 l 67.59375,-78.75 h 17.25 v 85.3125 h 20.71875 z m -38.71875,-15 v -63 l -54.09375,63 z"
         id="text3"
         transform="matrix(8.9577135,0,0,7.0396729,5572.518,-1291.8063)"
         aria-label="4" />
      <path
         style="font-size:192px;font-family:System-ui;-inkscape-font-specification:System-ui;white-space:pre;fill:#ffe680;stroke-width:1.00157"
         d="m -498.61523,336.17133 h -20.71875 v 39.28125 h -18 v -39.28125 h -66.84375 v -21.5625 l 67.59375,-78.75 h 17.25 v 85.3125 h 20.71875 z m -38.71875,-15 v -63 l -54.09375,63 z"
         id="text3-9"
         aria-label="4"
         transform="matrix(8.9577135,0,0,7.0396729,7508.5588,-1284.1473)" />
    </g>
  </g>
</svg>
