<?xml version="1.0" encoding="UTF-8" standalone="no"?>
<svg
   version="1.1"
   width="3171.4285714285716"
   height="3050.8085378116994"
   viewBox="0 0 3171.4285714285716 3050.8085378116994"
   id="svg3"
   sodipodi:docname="Color logo - no background.svg"
   inkscape:version="1.4 (e7c3feb1, 2024-10-09)"
   xmlns:inkscape="http://www.inkscape.org/namespaces/inkscape"
   xmlns:sodipodi="http://sodipodi.sourceforge.net/DTD/sodipodi-0.dtd"
   xmlns="http://www.w3.org/2000/svg"
   xmlns:svg="http://www.w3.org/2000/svg">
  <defs
     id="defs3" />
  <sodipodi:namedview
     id="namedview3"
     pagecolor="#505050"
     bordercolor="#eeeeee"
     borderopacity="1"
     inkscape:showpageshadow="0"
     inkscape:pageopacity="0"
     inkscape:pagecheckerboard="0"
     inkscape:deskcolor="#505050"
     inkscape:zoom="0.18355789"
     inkscape:cx="1588.0548"
     inkscape:cy="1525.4043"
     inkscape:window-width="1568"
     inkscape:window-height="779"
     inkscape:window-x="0"
     inkscape:window-y="25"
     inkscape:window-maximized="0"
     inkscape:current-layer="g3" />
  <g
     transform="scale(8.571428571428571) translate(10, 10)"
     id="g3">
    <defs
       id="SvgjsDefs2928" />
    <g
       id="SvgjsG2929"
       featureKey="symbolGroupContainer"
       transform="matrix(1,0,0,1,73,0)"
       fill="#111111"
       style="fill:#393646;fill-opacity:1;fill-rule:nonzero">
      <rect
         width="205"
         height="175"
         rx="10"
         ry="10"
         id="rect1"
         style="fill:#393646;fill-opacity:1;fill-rule:nonzero" />
    </g>
    <g
       id="SvgjsG2930"
       featureKey="S6ay6y-0"
       transform="matrix(1.8300652043405745,0,0,1.8300652043405745,83.84967397829713,-2.7757333633948065)"
       fill="#fcfcfc">
      <g
         transform="translate(0,-952.36218)"
         id="g1">
        <path
           style=""
           d="m 20.843858,964.81324 c -1.711978,0.0471 -3.446092,0.37743 -5.063146,1.06774 -7.6462911,3.26413 -10.6837002,12.30014 -7.301952,19.52927 -0.030497,0.0722 -0.1366727,0.21868 -0.1722158,0.27555 C 6.2581897,989.14947 5,993.50733 5,998.25758 c 0,11.24502 6.845606,20.35582 15.292767,20.35582 5.065248,0 9.513368,-3.3219 12.296211,-8.3696 1.158725,3.0538 4.12057,5.2354 7.577497,5.2354 1.154086,0 2.244406,-0.2188 3.237658,-0.6545 -0.01239,0.1831 -0.03444,0.3649 -0.03444,0.5511 0,4.4657 3.628448,8.0942 8.094145,8.0942 2.847807,0 5.344767,-1.495 6.785304,-3.7199 1.321828,2.6661 4.05559,4.512 7.233065,4.512 3.736593,0 6.856931,-2.5493 7.784157,-5.9931 0.0837,-0.026 0.157782,-0.076 0.241102,-0.1036 1.383471,1.1071 3.118974,1.791 5.028702,1.791 4.465697,0 8.094145,-3.6284 8.094145,-8.0942 0,-0.7245 -0.131217,-1.3983 -0.309989,-2.0665 0.155506,-0.184 0.298329,-0.3632 0.447762,-0.5511 0.04625,7e-4 0.09135,0 0.137772,0 4.465697,0 8.094145,-3.6284 8.094145,-8.0941 0,-2.74578 -1.352064,-5.15165 -3.444317,-6.61314 -0.0071,-0.1057 -0.06025,-0.20464 -0.06889,-0.30998 0.982,-1.33858 1.584386,-2.96579 1.584386,-4.75316 0,-4.10209 -3.067692,-7.50063 -7.026407,-8.02526 0.257102,-0.78921 0.378875,-1.63934 0.378875,-2.51435 0,-4.4657 -3.594005,-8.0597 -8.059702,-8.0597 -1.594598,0 -3.087184,0.47755 -4.339839,1.27439 -1.165656,-3.03331 -4.133716,-5.20091 -7.577497,-5.20091 -2.700478,0 -5.075679,1.34134 -6.544202,3.37543 -1.453087,-2.15081 -3.890914,-3.54765 -6.681975,-3.54765 -4.233027,0 -7.709264,3.26292 -8.059701,7.40528 -1.048098,-0.49634 -2.207589,-0.79219 -3.444317,-0.79219 -4.465696,0 -8.094145,3.62843 -8.094145,8.09414 0,1.46732 0.414593,2.84142 1.102182,4.02985 -0.786088,0.0732 -1.533746,0.26862 -2.238806,0.55109 -0.25933,-0.4585 -0.505864,-0.88094 -0.792193,-1.30884 -1.045556,1.02641 -2.312868,1.87592 -3.788749,2.44547 -5.00568,1.93173 -11.201893,-0.12609 -13.122847,-5.26981 -1.455512,-3.8974 0.342933,-8.74805 4.649828,-10.02296 1.493456,-0.44208 3.151452,-0.29506 4.546498,0.34443 1.395046,0.6395 2.555204,1.80317 2.893226,3.44432 0.199568,0.96892 0.01966,2.08058 -0.516647,2.96211 -0.536314,0.88154 -1.507541,1.55358 -2.721011,1.48106 -0.637428,-0.0381 -1.207534,-0.39417 -1.618829,-0.89552 -0.205647,-0.25068 -0.373981,-0.56431 -0.344431,-0.96441 0.02955,-0.4001 0.337608,-0.7919 0.723306,-0.99885 l 0.516648,0.99885 c -0.165956,0.0891 -0.104652,0.0869 -0.10333,0.0689 0.0013,-0.018 0.0095,0.0578 0.10333,0.17222 0.187781,0.2289 0.693569,0.47669 0.792193,0.4822 0.781175,0.0467 1.312746,-0.31363 1.687715,-0.92996 0.375017,-0.61633 0.513098,-1.4838 0.378875,-2.13548 -0.25905,-1.25773 -1.104531,-2.1666 -2.238806,-2.68656 -1.134275,-0.51997 -2.539931,-0.60057 -3.754306,-0.24111 -3.640802,1.07773 -5.168331,5.1823 -3.926521,8.50747 1.674148,4.48284 7.217699,6.3704 11.676234,4.64982 5.646663,-2.17907 7.914535,-8.77055 5.614237,-14.05281 -2.099134,-4.82031 -7.160279,-7.44323 -12.296211,-7.30195 z m 22.560275,52.21586 c -0.526826,0.2311 -1.076799,0.3735 -1.653272,0.4822 -0.0943,1.1607 -0.137773,2.3824 -0.137773,3.6165 0,2.883 0.282208,5.5988 0.75775,7.9909 l 11.745121,0 c 0.2563,-1.2883 0.455552,-2.683 0.585534,-4.1332 -0.989164,0.4372 -2.087583,0.6888 -3.237658,0.6888 -4.465697,0 -8.094145,-3.6285 -8.094145,-8.0942 0,-0.1862 0.02206,-0.368 0.03444,-0.551 z m 30.10333,3.341 c -0.08333,0.028 -0.157403,0.077 -0.241102,0.1036 -0.463613,1.7218 -1.461278,3.2032 -2.82434,4.271 0.129089,1.5379 0.315583,3.0164 0.585534,4.3743 l 11.74512,0 c 0.476177,-2.3933 0.75775,-5.1058 0.75775,-7.9908 0,-0.2417 0.0037,-0.4841 0,-0.7234 -1.37935,1.091 -3.101706,1.7567 -4.99426,1.7567 -1.909728,0 -3.645231,-0.6839 -5.028702,-1.7911 z m -30.516648,11.2974 c 1.210923,4.1286 3.127658,6.8197 5.269805,6.8197 2.142148,0 4.024439,-2.6911 5.235362,-6.8197 l -10.505167,0 z m 28.656717,0 c 1.210922,4.1286 3.127658,6.8197 5.269804,6.8197 2.142148,0 4.024439,-2.6911 5.235362,-6.8197 l -10.505166,0 z"
           fill="#fcfcfc"
           fill-opacity="1"
           stroke="none"
           id="path1"
           inkscape:label="path1" />
      </g>
    </g>
    <g
       id="SvgjsG2931"
       featureKey="j5pGhi-0"
       transform="matrix(5.876377315963072,0,0,5.876377315963072,-3.2709918133614337,167.68310823970828)"
       fill="#111111">
      <path
         d="M0.55664 16.4941 l1.2305 -0.74219 q1.298828125 2.392578125 2.998046875 2.392578125 q0.732421875 0 1.376953125 -0.341796875 t0.97656 -0.9082 t0.33203 -1.2109 q0 -0.72265625 -0.48828125 -1.42578125 q-0.68359375 -0.966796875 -2.490234375 -1.97265625 q-1.81640625 -1.3671875 -2.24609375 -1.982421875 q-0.771484375 -1.015625 -0.771484375 -2.216796875 q0 -0.947265625 0.44921875 -1.71875 t1.2744 -1.2256 t1.792 -0.4541 q1.015625 0 1.904296875 0.5126953125 t1.8848 1.8701 l-1.1816 0.88867 q-0.810546875 -1.07421875 -1.38671875 -1.420898438 t-1.2598 -0.34668 q-0.869140625 0 -1.42578125 0.5322265625 t-0.55664 1.3037 q0 0.46875 0.1953125 0.91796875 t0.72266 0.95703 q0.283203125 0.283203125 1.875 1.455078125 q1.875 1.38671875 2.573242188 2.294921875 t0.69824 1.9922 q0 1.58203125 -1.196289063 2.744140625 t-2.9053 1.1621 q-1.328125 0 -2.40234375 -0.703125 t-1.9727 -2.3535 z M10.351566875 6.348000000000001 l0 -1.4063 l7.9492 0 l0 1.4063 l-3.2422 0 l0 13.076 l-1.4746 0 l0 -13.076 l-3.2324 0 z M20.15628125 4.941000000000001 l1.4453 0 l0 14.482 l-1.4453 0 l0 -14.482 z M23.476566875 6.348000000000001 l0 -1.4063 l7.9492 0 l0 1.4063 l-3.2422 0 l0 13.076 l-1.4746 0 l0 -13.076 l-3.2324 0 z M46.98228125 7.715 l-1.1523 0.85938 q-0.9375 -1.23046875 -2.260742188 -1.860351563 t-2.9053 -0.62988 q-1.73828125 0 -3.212890625 0.830078125 t-2.29 2.2314 t-0.81543 3.1592 q0 2.646484375 1.81640625 4.262695313 t4.5801 1.6162 q3.046875 0 5.087890625 -2.3828125 l1.1523 0.86914 q-1.083984375 1.376953125 -2.705078125 2.12890625 t-3.6133 0.75195 q-3.80859375 0 -6.005859375 -2.529296875 q-1.8359375 -2.138671875 -1.8359375 -4.84375 q0 -3.173828125 2.231445313 -5.3515625 t5.5811 -2.1777 q2.03125 0 3.666992188 0.8056640625 t2.6807 2.2607 z M49.843734375 4.941000000000001 l1.4551 0 l0 6.0742 l7.373 0 l0 -6.0742 l1.4453 0 l0 14.482 l-1.4453 0 l0 -6.9824 l-7.373 0 l0 6.9824 l-1.4551 0 l0 -14.482 z"
         id="path2"
         style="fill:#393646;fill-opacity:1" />
    </g>
    <g
       id="SvgjsG2932"
       featureKey="j5pGhi-1"
       transform="matrix(2.916904972260116,0,0,2.916904972260116,-5.326851884821065,279.32854348363094)"
       fill="#111111">
      <path
         d="M1.8262 4.941000000000001 l2.8809 0 q2.412109375 0 3.271484375 0.1953125 q1.2890625 0.29296875 2.099609375 1.264648438 t0.81055 2.3877 q0 1.19140625 -0.556640625 2.080078125 t-1.5967 1.3525 t-1.8018 0.46387 l4.1504 6.7383 l-1.7773 0 l-4.1504 -6.7383 l-1.8848 0 l0 6.7383 l-1.4453 0 l0 -14.482 z M3.2715 6.356999999999999 l0 4.9219 l2.4902 0.019531 q1.4453125 0 2.143554688 -0.2734375 t1.084 -0.87891 t0.38574 -1.3574 q0 -0.72265625 -0.3955078125 -1.318359375 t-1.0303 -0.85449 t-2.1289 -0.25879 l-2.5488 0 z M13.974596875 4.941000000000001 l8.3008 0 l0 1.4258 l-6.8555 0 l0 4.5313 l4.1797 0 l0 1.4063 l-4.1797 0 l0 5.6836 l6.7969 0 l0 1.4355 l-8.2422 0 l0 -14.482 z M24.03320625 4.98 l1.5723 0 l4.7949 11.191 l4.8828 -11.191 l1.582 0 l-6.3086 14.482 l-0.3125 0 z M45.781240625 4.686999999999999 q3.28125 0 5.493164063 2.197265625 t2.2119 5.4102 q0 3.173828125 -2.20703125 5.21484375 t-5.3809 2.041 q-3.22265625 0 -5.439453125 -2.202148438 t-2.2168 -4.9854 q0 -2.080078125 1.005859375 -3.8671875 t2.7539 -2.7979 t3.7793 -1.0107 z M45.839840625 6.1129999999999995 q-1.6015625 0 -3.041992188 0.8349609375 t-2.2412 2.2559 t-0.80078 3.1592 q0 2.578125 1.782226563 4.1796875 t4.3018 1.6016 q1.6796875 0 3.115234375 -0.8203125 t2.2363 -2.2314 t0.80078 -2.7979 q0 -1.71875 -0.80078125 -3.115234375 t-2.2559 -2.2314 t-3.0957 -0.83496 z M56.367140625 4.901999999999999 l1.4551 0 l0 13.086 l5.5664 0 l0 1.3965 l-7.0215 0 l0 -14.482 z M65.712915625 4.707000000000001 l1.4453 0 l0 8.7402 q0 1.552734375 0.068359375 1.943359375 q0.107421875 0.859375 0.498046875 1.430664063 t1.2061 0.95703 t1.6455 0.38574 q0.712890625 0.185546875 1.962890625 -0.126953125 t1.6895 -0.93262 t0.64453 -1.4014 q0.15625 -0.546875 0.15625 -2.255859375 l0 -8.7402 l1.4453 0 l0 8.7402 q0 1.943359375 -0.380859375 3.139648438 t-1.5186 2.0801 t-3.9209 0.88379 q-1.7578125 0 -3.002929688 -0.83984375 t-1.665 -2.207 q-0.2734375 -0.859375 -0.2734375 -3.056640625 l0 -8.7402 z M78.38867625 6.348000000000001 l0 -1.4063 l7.9492 0 l0 1.4063 l-3.2422 0 l0 13.076 l-1.4746 0 l0 -13.076 l-3.2324 0 z M88.193390625 4.941000000000001 l1.4453 0 l0 14.482 l-1.4453 0 l0 -14.482 z M99.85350625 4.686999999999999 q3.28125 0 5.493164063 2.197265625 t2.2119 5.4102 q0 3.173828125 -2.20703125 5.21484375 t-5.3809 2.041 q-3.22265625 0 -5.439453125 -2.202148438 t-2.2168 -4.9854 q0 -2.080078125 1.005859375 -3.8671875 t2.7539 -2.7979 t3.7793 -1.0107 z M99.91210625 6.1129999999999995 q-1.6015625 0 -3.041992188 0.8349609375 t-2.2412 2.2559 t-0.80078 3.1592 q0 2.578125 1.782226563 4.1796875 t4.3018 1.6016 q1.6796875 0 3.115234375 -0.8203125 t2.2363 -2.2314 t0.80078 -2.7979 q0 -1.71875 -0.80078125 -3.115234375 t-2.2559 -2.2314 t-3.0957 -0.83496 z M110.44920625 19.42383 l0 -14.482 l0.3125 0 l9.6289 11.084 l0 -11.084 l1.4258 0 l0 14.482 l-0.33203 0 l-9.5313 -10.947 l0 10.947 l-1.5039 0 z"
         id="path3"
         style="fill:#393646;fill-opacity:1" />
    </g>
  </g>
</svg>
